# xmcd CD database file
#
# Track frame offsets:
#	183
#	18738
#	43400
#	60175
#	73195
#	94283
#	112048
#	130143
#	150253
#	163983
#	184275
#	202815
#	226365
#	250638
#	273435
#
# Disc length: 3823 seconds
#
# Revision: 0
# Processed by: cddbd v1.5.1PL0 Copyright (c) Steve Scherf et al.
# Submitted via: CDex 1.51
#
DISCID=d20eed0f
DTITLE=Artisti Vari - Waterfall 
DYEAR=1996
DGENRE=New Age
TTITLE0=Morning Breeze - Blonker
TTITLE1=Pri Doline - Mikhail Alperin
TTITLE2=Shifting Sands - Mark P. Adler
TTITLE3=Jacha Mallku - Mallku De Los Andes
TTITLE4=Ancient Rainforest - Steve Middleton
TTITLE5=Cajun Dub - R. Lion, A. Terrano
TTITLE6=War Industry - Mauro Morgia
TTITLE7=African Kalimba - Blonker
TTITLE8=Dos Carnavalitos - Mallku De Los Andes
TTITLE9=Spring Morning - Steve Middleton
TTITLE10=The Ambient Warrior - R. Lion, A. Terrano
TTITLE11=Autumn Village - Mark P. Adler
TTITLE12=Dream Of The Dancing Metheor - Mauro Morgia
TTITLE13=Basta De Fingir - Lito Vtale Cuarteto
TTITLE14=Cintita Celeste - Mallku De Los Andes
EXTD=YEAR: 1996
EXTT0=
EXTT1=
EXTT2=
EXTT3=
EXTT4=
EXTT5=
EXTT6=
EXTT7=
EXTT8=
EXTT9=
EXTT10=
EXTT11=
EXTT12=
EXTT13=
EXTT14=
PLAYORDER=
